<mxfile host="app.diagrams.net" modified="2024-04-30T03:32:47.971Z" agent="Mozilla/5.0 (X11; Linux x86_64) AppleWebKit/537.36 (KHTML, like Gecko) Chrome/124.0.0.0 Safari/537.36" etag="mHbIJR9I79Abwnb0Cv9t" version="23.1.6" type="device">
  <diagram name="PÃ¡gina-1" id="73zxFw3uq6Hf-3sEQgJN">
    <mxGraphModel dx="1434" dy="746" grid="1" gridSize="10" guides="1" tooltips="1" connect="1" arrows="1" fold="1" page="1" pageScale="1" pageWidth="827" pageHeight="1169" math="0" shadow="0">
      <root>
        <mxCell id="0" />
        <mxCell id="1" parent="0" />
        <mxCell id="9KfOy0nab-cAZdmOdbw2-1" value="&lt;font style=&quot;font-size: 18px;&quot;&gt;Navegador Internet&lt;br&gt;&lt;br&gt;&lt;br&gt;&lt;br&gt;&lt;/font&gt;" style="whiteSpace=wrap;html=1;aspect=fixed;" vertex="1" parent="1">
          <mxGeometry x="285" y="370" width="170" height="170" as="geometry" />
        </mxCell>
        <mxCell id="9KfOy0nab-cAZdmOdbw2-3" value="&lt;font style=&quot;font-size: 18px;&quot;&gt;Aparelho Telefonico&lt;br&gt;&lt;br&gt;&lt;br&gt;&lt;/font&gt;" style="whiteSpace=wrap;html=1;aspect=fixed;" vertex="1" parent="1">
          <mxGeometry x="30" y="370" width="150" height="150" as="geometry" />
        </mxCell>
        <mxCell id="9KfOy0nab-cAZdmOdbw2-4" value="&lt;font style=&quot;font-size: 18px;&quot;&gt;Reprodutor Musical&lt;br&gt;&lt;br&gt;&lt;br&gt;&lt;/font&gt;" style="whiteSpace=wrap;html=1;aspect=fixed;" vertex="1" parent="1">
          <mxGeometry x="590" y="370" width="150" height="150" as="geometry" />
        </mxCell>
        <mxCell id="9KfOy0nab-cAZdmOdbw2-8" style="edgeStyle=orthogonalEdgeStyle;rounded=0;orthogonalLoop=1;jettySize=auto;html=1;entryX=0.5;entryY=1;entryDx=0;entryDy=0;" edge="1" parent="1" source="9KfOy0nab-cAZdmOdbw2-5" target="9KfOy0nab-cAZdmOdbw2-3">
          <mxGeometry relative="1" as="geometry" />
        </mxCell>
        <mxCell id="9KfOy0nab-cAZdmOdbw2-5" value="AparelhoTelefonicoImpl" style="rounded=0;whiteSpace=wrap;html=1;" vertex="1" parent="1">
          <mxGeometry x="35" y="580" width="140" height="60" as="geometry" />
        </mxCell>
        <mxCell id="9KfOy0nab-cAZdmOdbw2-9" style="edgeStyle=orthogonalEdgeStyle;rounded=0;orthogonalLoop=1;jettySize=auto;html=1;exitX=0.5;exitY=0;exitDx=0;exitDy=0;entryX=0.5;entryY=1;entryDx=0;entryDy=0;" edge="1" parent="1" source="9KfOy0nab-cAZdmOdbw2-6" target="9KfOy0nab-cAZdmOdbw2-1">
          <mxGeometry relative="1" as="geometry" />
        </mxCell>
        <mxCell id="9KfOy0nab-cAZdmOdbw2-6" value="NavegadorInternetImpl" style="rounded=0;whiteSpace=wrap;html=1;" vertex="1" parent="1">
          <mxGeometry x="300" y="580" width="140" height="60" as="geometry" />
        </mxCell>
        <mxCell id="9KfOy0nab-cAZdmOdbw2-10" style="edgeStyle=orthogonalEdgeStyle;rounded=0;orthogonalLoop=1;jettySize=auto;html=1;entryX=0.5;entryY=1;entryDx=0;entryDy=0;" edge="1" parent="1" source="9KfOy0nab-cAZdmOdbw2-7" target="9KfOy0nab-cAZdmOdbw2-4">
          <mxGeometry relative="1" as="geometry" />
        </mxCell>
        <mxCell id="9KfOy0nab-cAZdmOdbw2-7" value="ReprodutorMusicalImpl" style="rounded=0;whiteSpace=wrap;html=1;" vertex="1" parent="1">
          <mxGeometry x="595" y="580" width="140" height="60" as="geometry" />
        </mxCell>
        <mxCell id="9KfOy0nab-cAZdmOdbw2-11" value="+ ligar(): void&lt;br&gt;+ atender(): void&lt;br&gt;+ iniciarCorreioVoz(): void" style="rounded=0;whiteSpace=wrap;html=1;" vertex="1" parent="1">
          <mxGeometry x="30" y="460" width="150" height="60" as="geometry" />
        </mxCell>
        <mxCell id="9KfOy0nab-cAZdmOdbw2-12" value="+ exibirNovaPagina(): void&lt;br&gt;+&amp;nbsp;adicionarNovaAba(): void&lt;br&gt;+&amp;nbsp;atualizarPagina(): void" style="rounded=0;whiteSpace=wrap;html=1;" vertex="1" parent="1">
          <mxGeometry x="285" y="470" width="170" height="70" as="geometry" />
        </mxCell>
        <mxCell id="9KfOy0nab-cAZdmOdbw2-13" value="+ tocar(): void&lt;br&gt;+ pausar(): void&lt;br&gt;+&amp;nbsp;selecionarMusica(): void" style="rounded=0;whiteSpace=wrap;html=1;" vertex="1" parent="1">
          <mxGeometry x="590" y="460" width="150" height="60" as="geometry" />
        </mxCell>
        <mxCell id="9KfOy0nab-cAZdmOdbw2-15" style="edgeStyle=orthogonalEdgeStyle;rounded=0;orthogonalLoop=1;jettySize=auto;html=1;entryX=0.5;entryY=0;entryDx=0;entryDy=0;" edge="1" parent="1" source="9KfOy0nab-cAZdmOdbw2-14" target="9KfOy0nab-cAZdmOdbw2-3">
          <mxGeometry relative="1" as="geometry" />
        </mxCell>
        <mxCell id="9KfOy0nab-cAZdmOdbw2-16" style="edgeStyle=orthogonalEdgeStyle;rounded=0;orthogonalLoop=1;jettySize=auto;html=1;entryX=0.5;entryY=0;entryDx=0;entryDy=0;" edge="1" parent="1" source="9KfOy0nab-cAZdmOdbw2-14" target="9KfOy0nab-cAZdmOdbw2-1">
          <mxGeometry relative="1" as="geometry" />
        </mxCell>
        <mxCell id="9KfOy0nab-cAZdmOdbw2-17" style="edgeStyle=orthogonalEdgeStyle;rounded=0;orthogonalLoop=1;jettySize=auto;html=1;entryX=0.5;entryY=0;entryDx=0;entryDy=0;" edge="1" parent="1" source="9KfOy0nab-cAZdmOdbw2-14" target="9KfOy0nab-cAZdmOdbw2-4">
          <mxGeometry relative="1" as="geometry" />
        </mxCell>
        <mxCell id="9KfOy0nab-cAZdmOdbw2-14" value="&lt;font style=&quot;font-size: 30px;&quot;&gt;IPHONE&lt;/font&gt;" style="whiteSpace=wrap;html=1;aspect=fixed;" vertex="1" parent="1">
          <mxGeometry x="265" y="40" width="210" height="210" as="geometry" />
        </mxCell>
      </root>
    </mxGraphModel>
  </diagram>
</mxfile>
